<mxfile host="65bd71144e">
    <diagram id="hXa-8S2XzWI_piD0tFBu" name="Visão Geral - Dominio">
        <mxGraphModel dx="751" dy="408" grid="1" gridSize="10" guides="1" tooltips="1" connect="1" arrows="1" fold="1" page="1" pageScale="1" pageWidth="850" pageHeight="1100" math="0" shadow="0">
            <root>
                <mxCell id="0"/>
                <mxCell id="1" parent="0"/>
                <mxCell id="3" value="Ecommerce ABC" style="shape=umlFrame;whiteSpace=wrap;html=1;width=120;height=30;boundedLbl=1;verticalAlign=middle;align=left;spacingLeft=5;" parent="1" vertex="1">
                    <mxGeometry x="220" y="50" width="340" height="540" as="geometry"/>
                </mxCell>
                <mxCell id="9" style="edgeStyle=none;html=1;exitX=0.5;exitY=0.5;exitDx=0;exitDy=0;exitPerimeter=0;entryX=1;entryY=0.3333333333333333;entryDx=0;entryDy=0;entryPerimeter=0;endArrow=block;endFill=1;" parent="1" source="4" target="6" edge="1">
                    <mxGeometry relative="1" as="geometry"/>
                </mxCell>
                <mxCell id="21" style="edgeStyle=none;html=1;exitX=1;exitY=0.3333333333333333;exitDx=0;exitDy=0;exitPerimeter=0;endArrow=none;endFill=0;" parent="1" source="4" target="17" edge="1">
                    <mxGeometry relative="1" as="geometry"/>
                </mxCell>
                <mxCell id="22" style="edgeStyle=none;html=1;exitX=1;exitY=0.3333333333333333;exitDx=0;exitDy=0;exitPerimeter=0;endArrow=none;endFill=0;" parent="1" source="4" target="16" edge="1">
                    <mxGeometry relative="1" as="geometry"/>
                </mxCell>
                <mxCell id="23" style="edgeStyle=none;html=1;exitX=1;exitY=0.3333333333333333;exitDx=0;exitDy=0;exitPerimeter=0;endArrow=none;endFill=0;" parent="1" source="4" target="18" edge="1">
                    <mxGeometry relative="1" as="geometry"/>
                </mxCell>
                <mxCell id="4" value="Cliente" style="shape=umlActor;verticalLabelPosition=bottom;verticalAlign=top;html=1;" parent="1" vertex="1">
                    <mxGeometry x="120" y="200" width="30" height="60" as="geometry"/>
                </mxCell>
                <mxCell id="8" style="edgeStyle=none;html=1;exitX=0;exitY=0.3333333333333333;exitDx=0;exitDy=0;exitPerimeter=0;entryX=1;entryY=1;entryDx=0;entryDy=0;entryPerimeter=0;endArrow=block;endFill=1;" parent="1" source="5" target="6" edge="1">
                    <mxGeometry relative="1" as="geometry"/>
                </mxCell>
                <mxCell id="14" style="edgeStyle=none;html=1;exitX=1;exitY=0.3333333333333333;exitDx=0;exitDy=0;exitPerimeter=0;endArrow=none;endFill=0;" parent="1" source="5" target="12" edge="1">
                    <mxGeometry relative="1" as="geometry"/>
                </mxCell>
                <mxCell id="15" style="edgeStyle=none;html=1;exitX=1;exitY=0.3333333333333333;exitDx=0;exitDy=0;exitPerimeter=0;endArrow=none;endFill=0;" parent="1" source="5" target="13" edge="1">
                    <mxGeometry relative="1" as="geometry"/>
                </mxCell>
                <mxCell id="19" style="edgeStyle=none;html=1;endArrow=none;endFill=0;" parent="1" edge="1">
                    <mxGeometry relative="1" as="geometry">
                        <mxPoint x="150" y="350" as="sourcePoint"/>
                        <mxPoint x="311" y="339" as="targetPoint"/>
                    </mxGeometry>
                </mxCell>
                <mxCell id="20" style="edgeStyle=none;html=1;exitX=1;exitY=0.3333333333333333;exitDx=0;exitDy=0;exitPerimeter=0;endArrow=none;endFill=0;" parent="1" source="5" target="18" edge="1">
                    <mxGeometry relative="1" as="geometry"/>
                </mxCell>
                <mxCell id="5" value="Administrador" style="shape=umlActor;verticalLabelPosition=bottom;verticalAlign=top;html=1;" parent="1" vertex="1">
                    <mxGeometry x="120" y="330" width="30" height="60" as="geometry"/>
                </mxCell>
                <mxCell id="6" value="Usuario" style="shape=umlActor;verticalLabelPosition=bottom;verticalAlign=top;html=1;" parent="1" vertex="1">
                    <mxGeometry x="40" y="260" width="30" height="60" as="geometry"/>
                </mxCell>
                <mxCell id="12" value="Gerenciar Produto" style="ellipse;whiteSpace=wrap;html=1;" parent="1" vertex="1">
                    <mxGeometry x="285" y="390" width="140" height="70" as="geometry"/>
                </mxCell>
                <mxCell id="13" value="Gerenciar Categotia" style="ellipse;whiteSpace=wrap;html=1;" parent="1" vertex="1">
                    <mxGeometry x="240" y="480" width="140" height="70" as="geometry"/>
                </mxCell>
                <mxCell id="16" value="Gerenciar Pedido" style="ellipse;whiteSpace=wrap;html=1;" parent="1" vertex="1">
                    <mxGeometry x="310" y="300" width="140" height="70" as="geometry"/>
                </mxCell>
                <mxCell id="17" value="Gerenciar Carrinho" style="ellipse;whiteSpace=wrap;html=1;" parent="1" vertex="1">
                    <mxGeometry x="340" y="190" width="140" height="70" as="geometry"/>
                </mxCell>
                <mxCell id="18" value="Gerenciar Usuario" style="ellipse;whiteSpace=wrap;html=1;" parent="1" vertex="1">
                    <mxGeometry x="310" y="100" width="140" height="70" as="geometry"/>
                </mxCell>
            </root>
        </mxGraphModel>
    </diagram>
    <diagram id="UX1wETH_r1AoGowfUC1b" name="Subdominio -Usuário">
        <mxGraphModel dx="751" dy="408" grid="1" gridSize="10" guides="1" tooltips="1" connect="1" arrows="1" fold="1" page="1" pageScale="1" pageWidth="850" pageHeight="1100" math="0" shadow="0">
            <root>
                <mxCell id="0"/>
                <mxCell id="1" parent="0"/>
                <mxCell id="QvfsDt-sqGpOydoDML_0-2" style="edgeStyle=none;html=1;exitX=1;exitY=0.3333333333333333;exitDx=0;exitDy=0;exitPerimeter=0;endArrow=none;endFill=0;" parent="1" source="nCvCrU0ZwoFaFAqvZzkf-1" target="QvfsDt-sqGpOydoDML_0-1" edge="1">
                    <mxGeometry relative="1" as="geometry"/>
                </mxCell>
                <mxCell id="nCvCrU0ZwoFaFAqvZzkf-1" value="Administrador" style="shape=umlActor;verticalLabelPosition=bottom;verticalAlign=top;html=1;" parent="1" vertex="1">
                    <mxGeometry x="60" y="255" width="50" height="60" as="geometry"/>
                </mxCell>
                <mxCell id="mfY3Q-NAssQAnDx4RP52-1" value="&lt;span style=&quot;color: rgba(0, 0, 0, 0); font-family: monospace; font-size: 0px;&quot;&gt;%3CmxGraphModel%3E%3Croot%3E%3CmxCell%20id%3D%220%22%2F%3E%3CmxCell%20id%3D%221%22%20parent%3D%220%22%2F%3E%3CmxCell%20id%3D%222%22%20style%3D%22edgeStyle%3Dnone%3Bhtml%3D1%3BexitX%3D1%3BexitY%3D0.3333333333333333%3BexitDx%3D0%3BexitDy%3D0%3BexitPerimeter%3D0%3BendArrow%3Dnone%3BendFill%3D0%3B%22%20edge%3D%221%22%20source%3D%223%22%20target%3D%224%22%20parent%3D%221%22%3E%3CmxGeometry%20relative%3D%221%22%20as%3D%22geometry%22%2F%3E%3C%2FmxCell%3E%3CmxCell%20id%3D%223%22%20value%3D%22Administrador%22%20style%3D%22shape%3DumlActor%3BverticalLabelPosition%3Dbottom%3BverticalAlign%3Dtop%3Bhtml%3D1%3B%22%20vertex%3D%221%22%20parent%3D%221%22%3E%3CmxGeometry%20x%3D%2280%22%20y%3D%22360%22%20width%3D%2250%22%20height%3D%2260%22%20as%3D%22geometry%22%2F%3E%3C%2FmxCell%3E%3CmxCell%20id%3D%224%22%20value%3D%22Gerenciar%20Categoria%22%20style%3D%22ellipse%3BwhiteSpace%3Dwrap%3Bhtml%3D1%3B%22%20vertex%3D%221%22%20parent%3D%221%22%3E%3CmxGeometry%20x%3D%22210%22%20y%3D%22350%22%20width%3D%22140%22%20height%3D%2270%22%20as%3D%22geometry%22%2F%3E%3C%2FmxCell%3E%3CmxCell%20id%3D%225%22%20value%3D%22Criar%20Categoria%22%20style%3D%22ellipse%3BwhiteSpace%3Dwrap%3Bhtml%3D1%3B%22%20vertex%3D%221%22%20parent%3D%221%22%3E%3CmxGeometry%20x%3D%22420%22%20y%3D%22190%22%20width%3D%22140%22%20height%3D%2270%22%20as%3D%22geometry%22%2F%3E%3C%2FmxCell%3E%3CmxCell%20id%3D%226%22%20value%3D%22Atualizar%20Categoria%22%20style%3D%22ellipse%3BwhiteSpace%3Dwrap%3Bhtml%3D1%3B%22%20vertex%3D%221%22%20parent%3D%221%22%3E%3CmxGeometry%20x%3D%22460%22%20y%3D%22410%22%20width%3D%22140%22%20height%3D%2270%22%20as%3D%22geometry%22%2F%3E%3C%2FmxCell%3E%3CmxCell%20id%3D%227%22%20value%3D%22Deletar%20Categoria%22%20style%3D%22ellipse%3BwhiteSpace%3Dwrap%3Bhtml%3D1%3B%22%20vertex%3D%221%22%20parent%3D%221%22%3E%3CmxGeometry%20x%3D%22420%22%20y%3D%22500%22%20width%3D%22140%22%20height%3D%2270%22%20as%3D%22geometry%22%2F%3E%3C%2FmxCell%3E%3CmxCell%20id%3D%228%22%20value%3D%22Recuperar%20Categoria%22%20style%3D%22ellipse%3BwhiteSpace%3Dwrap%3Bhtml%3D1%3B%22%20vertex%3D%221%22%20parent%3D%221%22%3E%3CmxGeometry%20x%3D%22460%22%20y%3D%22300%22%20width%3D%22140%22%20height%3D%2270%22%20as%3D%22geometry%22%2F%3E%3C%2FmxCell%3E%3CmxCell%20id%3D%229%22%20value%3D%22%26amp%3Blt%3B%26amp%3Blt%3Bextend%26amp%3Bgt%3B%26amp%3Bgt%3B%22%20style%3D%22html%3D1%3BverticalAlign%3Dbottom%3BlabelBackgroundColor%3Dnone%3BendArrow%3Dopen%3BendFill%3D0%3Bdashed%3D1%3BexitX%3D0.058%3BexitY%3D0.778%3BexitDx%3D0%3BexitDy%3D0%3BexitPerimeter%3D0%3B%22%20edge%3D%221%22%20source%3D%225%22%20target%3D%224%22%20parent%3D%221%22%3E%3CmxGeometry%20width%3D%22160%22%20relative%3D%221%22%20as%3D%22geometry%22%3E%3CmxPoint%20x%3D%22421%22%20y%3D%22300%22%20as%3D%22sourcePoint%22%2F%3E%3CmxPoint%20x%3D%22390%22%20y%3D%22328.75%22%20as%3D%22targetPoint%22%2F%3E%3CArray%20as%3D%22points%22%2F%3E%3C%2FmxGeometry%3E%3C%2FmxCell%3E%3CmxCell%20id%3D%2210%22%20value%3D%22%26amp%3Blt%3B%26amp%3Blt%3Bextend%26amp%3Bgt%3B%26amp%3Bgt%3B%22%20style%3D%22html%3D1%3BverticalAlign%3Dbottom%3BlabelBackgroundColor%3Dnone%3BendArrow%3Dopen%3BendFill%3D0%3Bdashed%3D1%3B%22%20edge%3D%221%22%20source%3D%228%22%20target%3D%224%22%20parent%3D%221%22%3E%3CmxGeometry%20width%3D%22160%22%20relative%3D%221%22%20as%3D%22geometry%22%3E%3CmxPoint%20x%3D%22230%22%20y%3D%22310%22%20as%3D%22sourcePoint%22%2F%3E%3CmxPoint%20x%3D%22390%22%20y%3D%22310%22%20as%3D%22targetPoint%22%2F%3E%3CArray%20as%3D%22points%22%2F%3E%3C%2FmxGeometry%3E%3C%2FmxCell%3E%3CmxCell%20id%3D%2211%22%20value%3D%22%26amp%3Blt%3B%26amp%3Blt%3Bextend%26amp%3Bgt%3B%26amp%3Bgt%3B%22%20style%3D%22html%3D1%3BverticalAlign%3Dbottom%3BlabelBackgroundColor%3Dnone%3BendArrow%3Dopen%3BendFill%3D0%3Bdashed%3D1%3B%22%20edge%3D%221%22%20source%3D%226%22%20target%3D%224%22%20parent%3D%221%22%3E%3CmxGeometry%20width%3D%22160%22%20relative%3D%221%22%20as%3D%22geometry%22%3E%3CmxPoint%20x%3D%22390%22%20y%3D%22470%22%20as%3D%22sourcePoint%22%2F%3E%3CmxPoint%20x%3D%22550%22%20y%3D%22470%22%20as%3D%22targetPoint%22%2F%3E%3C%2FmxGeometry%3E%3C%2FmxCell%3E%3CmxCell%20id%3D%2212%22%20value%3D%22%26amp%3Blt%3B%26amp%3Blt%3Bextend%26amp%3Bgt%3B%26amp%3Bgt%3B%22%20style%3D%22html%3D1%3BverticalAlign%3Dbottom%3BlabelBackgroundColor%3Dnone%3BendArrow%3Dopen%3BendFill%3D0%3Bdashed%3D1%3BentryX%3D1%3BentryY%3D1%3BentryDx%3D0%3BentryDy%3D0%3B%22%20edge%3D%221%22%20source%3D%227%22%20target%3D%224%22%20parent%3D%221%22%3E%3CmxGeometry%20width%3D%22160%22%20relative%3D%221%22%20as%3D%22geometry%22%3E%3CmxPoint%20x%3D%22400%22%20y%3D%22560%22%20as%3D%22sourcePoint%22%2F%3E%3CmxPoint%20x%3D%22560%22%20y%3D%22560%22%20as%3D%22targetPoint%22%2F%3E%3CArray%20as%3D%22points%22%2F%3E%3C%2FmxGeometry%3E%3C%2FmxCell%3E%3CmxCell%20id%3D%2213%22%20style%3D%22edgeStyle%3Dnone%3Bhtml%3D1%3BexitX%3D0%3BexitY%3D0.5%3BexitDx%3D0%3BexitDy%3D0%3BentryX%3D0.981%3BentryY%3D0.38%3BentryDx%3D0%3BentryDy%3D0%3BentryPerimeter%3D0%3BendArrow%3Dblock%3BendFill%3D1%3B%22%20edge%3D%221%22%20source%3D%2215%22%20target%3D%228%22%20parent%3D%221%22%3E%3CmxGeometry%20relative%3D%221%22%20as%3D%22geometry%22%2F%3E%3C%2FmxCell%3E%3CmxCell%20id%3D%2214%22%20style%3D%22edgeStyle%3Dnone%3Bhtml%3D1%3BendArrow%3Dblock%3BendFill%3D1%3B%22%20edge%3D%221%22%20source%3D%2216%22%20target%3D%228%22%20parent%3D%221%22%3E%3CmxGeometry%20relative%3D%221%22%20as%3D%22geometry%22%2F%3E%3C%2FmxCell%3E%3CmxCell%20id%3D%2215%22%20value%3D%22Recuperar%20Categoria%20por%20ID%22%20style%3D%22ellipse%3BwhiteSpace%3Dwrap%3Bhtml%3D1%3B%22%20vertex%3D%221%22%20parent%3D%221%22%3E%3CmxGeometry%20x%3D%22650%22%20y%3D%22295%22%20width%3D%22140%22%20height%3D%2270%22%20as%3D%22geometry%22%2F%3E%3C%2FmxCell%3E%3CmxCell%20id%3D%2216%22%20value%3D%22Recuperar%20por%20Filtro%22%20style%3D%22ellipse%3BwhiteSpace%3Dwrap%3Bhtml%3D1%3B%22%20vertex%3D%221%22%20parent%3D%221%22%3E%3CmxGeometry%20x%3D%22650%22%20y%3D%22410%22%20width%3D%22140%22%20height%3D%2270%22%20as%3D%22geometry%22%2F%3E%3C%2FmxCell%3E%3C%2Froot%3E%3C%2FmxGraphModel%3E&lt;/span&gt;" style="shape=umlFrame;whiteSpace=wrap;html=1;width=130;height=20;boundedLbl=1;verticalAlign=middle;align=left;spacingLeft=5;" parent="1" vertex="1">
                    <mxGeometry x="180" y="50" width="880" height="1010" as="geometry"/>
                </mxCell>
                <mxCell id="QvfsDt-sqGpOydoDML_0-1" value="Gerenciar Produto" style="ellipse;whiteSpace=wrap;html=1;" parent="1" vertex="1">
                    <mxGeometry x="200" y="240" width="140" height="70" as="geometry"/>
                </mxCell>
                <mxCell id="QvfsDt-sqGpOydoDML_0-3" value="Criar Produto" style="ellipse;whiteSpace=wrap;html=1;" parent="1" vertex="1">
                    <mxGeometry x="410" y="100" width="140" height="50" as="geometry"/>
                </mxCell>
                <mxCell id="QvfsDt-sqGpOydoDML_0-4" value="Atualizar Produto" style="ellipse;whiteSpace=wrap;html=1;" parent="1" vertex="1">
                    <mxGeometry x="417.5" y="220" width="140" height="50" as="geometry"/>
                </mxCell>
                <mxCell id="QvfsDt-sqGpOydoDML_0-5" value="Deletar Produto" style="ellipse;whiteSpace=wrap;html=1;" parent="1" vertex="1">
                    <mxGeometry x="417.5" y="275" width="140" height="45" as="geometry"/>
                </mxCell>
                <mxCell id="QvfsDt-sqGpOydoDML_0-6" value="Recuperar Produto" style="ellipse;whiteSpace=wrap;html=1;" parent="1" vertex="1">
                    <mxGeometry x="410" y="160" width="140" height="50" as="geometry"/>
                </mxCell>
                <mxCell id="QvfsDt-sqGpOydoDML_0-7" value="&amp;lt;&amp;lt;extend&amp;gt;&amp;gt;" style="html=1;verticalAlign=bottom;labelBackgroundColor=none;endArrow=open;endFill=0;dashed=1;exitX=0.058;exitY=0.778;exitDx=0;exitDy=0;exitPerimeter=0;" parent="1" source="QvfsDt-sqGpOydoDML_0-3" target="QvfsDt-sqGpOydoDML_0-1" edge="1">
                    <mxGeometry width="160" relative="1" as="geometry">
                        <mxPoint x="411" y="190" as="sourcePoint"/>
                        <mxPoint x="380" y="218.75" as="targetPoint"/>
                        <Array as="points"/>
                    </mxGeometry>
                </mxCell>
                <mxCell id="QvfsDt-sqGpOydoDML_0-8" value="&amp;lt;&amp;lt;extend&amp;gt;&amp;gt;" style="html=1;verticalAlign=bottom;labelBackgroundColor=none;endArrow=open;endFill=0;dashed=1;" parent="1" source="QvfsDt-sqGpOydoDML_0-6" target="QvfsDt-sqGpOydoDML_0-1" edge="1">
                    <mxGeometry width="160" relative="1" as="geometry">
                        <mxPoint x="220" y="200" as="sourcePoint"/>
                        <mxPoint x="380" y="200" as="targetPoint"/>
                        <Array as="points"/>
                    </mxGeometry>
                </mxCell>
                <mxCell id="QvfsDt-sqGpOydoDML_0-9" value="&amp;lt;&amp;lt;extend&amp;gt;&amp;gt;" style="html=1;verticalAlign=bottom;labelBackgroundColor=none;endArrow=open;endFill=0;dashed=1;" parent="1" source="QvfsDt-sqGpOydoDML_0-4" target="QvfsDt-sqGpOydoDML_0-1" edge="1">
                    <mxGeometry width="160" relative="1" as="geometry">
                        <mxPoint x="380" y="360" as="sourcePoint"/>
                        <mxPoint x="540" y="360" as="targetPoint"/>
                    </mxGeometry>
                </mxCell>
                <mxCell id="QvfsDt-sqGpOydoDML_0-11" value="&amp;lt;&amp;lt;extend&amp;gt;&amp;gt;" style="html=1;verticalAlign=bottom;labelBackgroundColor=none;endArrow=open;endFill=0;dashed=1;entryX=1;entryY=1;entryDx=0;entryDy=0;" parent="1" source="QvfsDt-sqGpOydoDML_0-5" target="QvfsDt-sqGpOydoDML_0-1" edge="1">
                    <mxGeometry x="-0.0151" y="51" width="160" relative="1" as="geometry">
                        <mxPoint x="390" y="450" as="sourcePoint"/>
                        <mxPoint x="550" y="450" as="targetPoint"/>
                        <Array as="points"/>
                        <mxPoint as="offset"/>
                    </mxGeometry>
                </mxCell>
                <mxCell id="QvfsDt-sqGpOydoDML_0-14" style="edgeStyle=none;html=1;exitX=0;exitY=0.5;exitDx=0;exitDy=0;entryX=0.981;entryY=0.38;entryDx=0;entryDy=0;entryPerimeter=0;endArrow=block;endFill=1;" parent="1" source="QvfsDt-sqGpOydoDML_0-12" target="QvfsDt-sqGpOydoDML_0-6" edge="1">
                    <mxGeometry relative="1" as="geometry">
                        <mxPoint x="640" y="220" as="sourcePoint"/>
                    </mxGeometry>
                </mxCell>
                <mxCell id="QvfsDt-sqGpOydoDML_0-15" style="edgeStyle=none;html=1;endArrow=block;endFill=1;exitX=0;exitY=0.5;exitDx=0;exitDy=0;" parent="1" source="QvfsDt-sqGpOydoDML_0-13" target="QvfsDt-sqGpOydoDML_0-6" edge="1">
                    <mxGeometry relative="1" as="geometry">
                        <mxPoint x="664.3233805248137" y="308.4780919176337" as="sourcePoint"/>
                    </mxGeometry>
                </mxCell>
                <mxCell id="QvfsDt-sqGpOydoDML_0-12" value="Recuperar Produto por ID" style="ellipse;whiteSpace=wrap;html=1;" parent="1" vertex="1">
                    <mxGeometry x="580" y="140" width="140" height="50" as="geometry"/>
                </mxCell>
                <mxCell id="QvfsDt-sqGpOydoDML_0-13" value="Recuperar&amp;nbsp; Produto por Filtro&amp;nbsp;" style="ellipse;whiteSpace=wrap;html=1;" parent="1" vertex="1">
                    <mxGeometry x="580" y="210" width="140" height="60" as="geometry"/>
                </mxCell>
                <mxCell id="QvfsDt-sqGpOydoDML_0-51" style="edgeStyle=none;html=1;exitX=1;exitY=0.3333333333333333;exitDx=0;exitDy=0;exitPerimeter=0;endArrow=none;endFill=0;" parent="1" source="QvfsDt-sqGpOydoDML_0-52" target="QvfsDt-sqGpOydoDML_0-53" edge="1">
                    <mxGeometry relative="1" as="geometry"/>
                </mxCell>
                <mxCell id="QvfsDt-sqGpOydoDML_0-52" value="Administrador" style="shape=umlActor;verticalLabelPosition=bottom;verticalAlign=top;html=1;" parent="1" vertex="1">
                    <mxGeometry x="50" y="890" width="50" height="60" as="geometry"/>
                </mxCell>
                <mxCell id="QvfsDt-sqGpOydoDML_0-53" value="Gerenciar Categoria" style="ellipse;whiteSpace=wrap;html=1;" parent="1" vertex="1">
                    <mxGeometry x="210" y="855.54" width="140" height="70" as="geometry"/>
                </mxCell>
                <mxCell id="QvfsDt-sqGpOydoDML_0-54" value="Criar Categoria" style="ellipse;whiteSpace=wrap;html=1;" parent="1" vertex="1">
                    <mxGeometry x="425" y="720" width="125" height="50" as="geometry"/>
                </mxCell>
                <mxCell id="QvfsDt-sqGpOydoDML_0-55" value="Atualizar Categoria" style="ellipse;whiteSpace=wrap;html=1;" parent="1" vertex="1">
                    <mxGeometry x="417.5" y="840" width="140" height="45.54" as="geometry"/>
                </mxCell>
                <mxCell id="QvfsDt-sqGpOydoDML_0-56" value="Deletar Categoria" style="ellipse;whiteSpace=wrap;html=1;" parent="1" vertex="1">
                    <mxGeometry x="417.5" y="895" width="140" height="50" as="geometry"/>
                </mxCell>
                <mxCell id="QvfsDt-sqGpOydoDML_0-57" value="Recuperar Categoria" style="ellipse;whiteSpace=wrap;html=1;" parent="1" vertex="1">
                    <mxGeometry x="417.5" y="784.46" width="140" height="45.54" as="geometry"/>
                </mxCell>
                <mxCell id="QvfsDt-sqGpOydoDML_0-58" value="&amp;lt;&amp;lt;extend&amp;gt;&amp;gt;" style="html=1;verticalAlign=bottom;labelBackgroundColor=none;endArrow=open;endFill=0;dashed=1;" parent="1" target="QvfsDt-sqGpOydoDML_0-53" edge="1">
                    <mxGeometry width="160" relative="1" as="geometry">
                        <mxPoint x="430" y="750" as="sourcePoint"/>
                        <mxPoint x="390" y="834.29" as="targetPoint"/>
                        <Array as="points"/>
                    </mxGeometry>
                </mxCell>
                <mxCell id="QvfsDt-sqGpOydoDML_0-59" value="&amp;lt;&amp;lt;extend&amp;gt;&amp;gt;" style="html=1;verticalAlign=bottom;labelBackgroundColor=none;endArrow=open;endFill=0;dashed=1;" parent="1" source="QvfsDt-sqGpOydoDML_0-57" target="QvfsDt-sqGpOydoDML_0-53" edge="1">
                    <mxGeometry width="160" relative="1" as="geometry">
                        <mxPoint x="230" y="815.54" as="sourcePoint"/>
                        <mxPoint x="390" y="815.54" as="targetPoint"/>
                        <Array as="points"/>
                    </mxGeometry>
                </mxCell>
                <mxCell id="QvfsDt-sqGpOydoDML_0-60" value="&amp;lt;&amp;lt;extend&amp;gt;&amp;gt;" style="html=1;verticalAlign=bottom;labelBackgroundColor=none;endArrow=open;endFill=0;dashed=1;" parent="1" source="QvfsDt-sqGpOydoDML_0-55" target="QvfsDt-sqGpOydoDML_0-53" edge="1">
                    <mxGeometry width="160" relative="1" as="geometry">
                        <mxPoint x="390" y="975.54" as="sourcePoint"/>
                        <mxPoint x="550" y="975.54" as="targetPoint"/>
                    </mxGeometry>
                </mxCell>
                <mxCell id="QvfsDt-sqGpOydoDML_0-61" value="&amp;lt;&amp;lt;extend&amp;gt;&amp;gt;" style="html=1;verticalAlign=bottom;labelBackgroundColor=none;endArrow=open;endFill=0;dashed=1;entryX=1;entryY=1;entryDx=0;entryDy=0;exitX=0;exitY=0.5;exitDx=0;exitDy=0;" parent="1" source="QvfsDt-sqGpOydoDML_0-56" target="QvfsDt-sqGpOydoDML_0-53" edge="1">
                    <mxGeometry width="160" relative="1" as="geometry">
                        <mxPoint x="452.44231275250604" y="1011.0043430383789" as="sourcePoint"/>
                        <mxPoint x="560" y="1065.54" as="targetPoint"/>
                        <Array as="points"/>
                    </mxGeometry>
                </mxCell>
                <mxCell id="QvfsDt-sqGpOydoDML_0-62" style="edgeStyle=none;html=1;entryX=0.981;entryY=0.38;entryDx=0;entryDy=0;entryPerimeter=0;endArrow=block;endFill=1;exitX=0;exitY=0.5;exitDx=0;exitDy=0;" parent="1" target="QvfsDt-sqGpOydoDML_0-57" edge="1">
                    <mxGeometry relative="1" as="geometry">
                        <mxPoint x="660" y="800" as="sourcePoint"/>
                    </mxGeometry>
                </mxCell>
                <mxCell id="QvfsDt-sqGpOydoDML_0-63" style="edgeStyle=none;html=1;endArrow=block;endFill=1;exitX=0;exitY=0.5;exitDx=0;exitDy=0;" parent="1" source="QvfsDt-sqGpOydoDML_0-65" target="QvfsDt-sqGpOydoDML_0-57" edge="1">
                    <mxGeometry relative="1" as="geometry">
                        <mxPoint x="674.3233805248137" y="924.0180919176337" as="sourcePoint"/>
                    </mxGeometry>
                </mxCell>
                <mxCell id="QvfsDt-sqGpOydoDML_0-64" value="Recuperar Categoria por ID" style="ellipse;whiteSpace=wrap;html=1;" parent="1" vertex="1">
                    <mxGeometry x="580" y="760" width="140" height="70" as="geometry"/>
                </mxCell>
                <mxCell id="QvfsDt-sqGpOydoDML_0-65" value="RecuperarCategoria&amp;nbsp;&lt;br&gt;por Filtro" style="ellipse;whiteSpace=wrap;html=1;" parent="1" vertex="1">
                    <mxGeometry x="580" y="840" width="140" height="70" as="geometry"/>
                </mxCell>
                <mxCell id="QvfsDt-sqGpOydoDML_0-72" value="Adicionar Categoria" style="ellipse;whiteSpace=wrap;html=1;" parent="1" vertex="1">
                    <mxGeometry x="417.5" y="330" width="140" height="50" as="geometry"/>
                </mxCell>
                <mxCell id="QvfsDt-sqGpOydoDML_0-73" value="&amp;lt;&amp;lt;extend&amp;gt;&amp;gt;" style="html=1;verticalAlign=bottom;labelBackgroundColor=none;endArrow=open;endFill=0;dashed=1;" parent="1" source="QvfsDt-sqGpOydoDML_0-72" target="QvfsDt-sqGpOydoDML_0-1" edge="1">
                    <mxGeometry width="160" relative="1" as="geometry">
                        <mxPoint x="210" y="450" as="sourcePoint"/>
                        <mxPoint x="370" y="450" as="targetPoint"/>
                    </mxGeometry>
                </mxCell>
                <mxCell id="QvfsDt-sqGpOydoDML_0-78" style="edgeStyle=none;html=1;exitX=0;exitY=0.5;exitDx=0;exitDy=0;entryX=1;entryY=0.5;entryDx=0;entryDy=0;endArrow=block;endFill=1;" parent="1" source="QvfsDt-sqGpOydoDML_0-74" target="QvfsDt-sqGpOydoDML_0-13" edge="1">
                    <mxGeometry relative="1" as="geometry"/>
                </mxCell>
                <mxCell id="QvfsDt-sqGpOydoDML_0-74" value="Recuperar por Categoria" style="ellipse;whiteSpace=wrap;html=1;" parent="1" vertex="1">
                    <mxGeometry x="850" y="231" width="140" height="70" as="geometry"/>
                </mxCell>
                <mxCell id="XEWM11dmK1A3vklCRZGo-2" style="edgeStyle=none;html=1;exitX=0;exitY=0;exitDx=0;exitDy=0;entryX=0.779;entryY=0.905;entryDx=0;entryDy=0;entryPerimeter=0;" parent="1" source="XEWM11dmK1A3vklCRZGo-1" target="QvfsDt-sqGpOydoDML_0-1" edge="1">
                    <mxGeometry relative="1" as="geometry"/>
                </mxCell>
                <mxCell id="XEWM11dmK1A3vklCRZGo-1" value="Remover Categoria" style="ellipse;whiteSpace=wrap;html=1;" parent="1" vertex="1">
                    <mxGeometry x="417.5" y="390" width="140" height="50" as="geometry"/>
                </mxCell>
                <mxCell id="XEWM11dmK1A3vklCRZGo-4" value="Alterar Status" style="ellipse;whiteSpace=wrap;html=1;" parent="1" vertex="1">
                    <mxGeometry x="277.5" y="430" width="140" height="50" as="geometry"/>
                </mxCell>
                <mxCell id="XEWM11dmK1A3vklCRZGo-5" style="edgeStyle=none;html=1;exitX=0.5;exitY=0;exitDx=0;exitDy=0;entryX=0.5;entryY=1;entryDx=0;entryDy=0;" parent="1" source="XEWM11dmK1A3vklCRZGo-4" target="QvfsDt-sqGpOydoDML_0-1" edge="1">
                    <mxGeometry relative="1" as="geometry">
                        <mxPoint x="368.9425253169417" y="401.9823304703364" as="sourcePoint"/>
                        <mxPoint x="239.99999999999994" y="308.01000000000005" as="targetPoint"/>
                    </mxGeometry>
                </mxCell>
                <mxCell id="XEWM11dmK1A3vklCRZGo-6" value="&amp;lt;&amp;lt;extend&amp;gt;&amp;gt;" style="html=1;verticalAlign=bottom;labelBackgroundColor=none;endArrow=open;endFill=0;dashed=1;entryX=1;entryY=1;entryDx=0;entryDy=0;" parent="1" edge="1">
                    <mxGeometry x="1" y="58" width="160" relative="1" as="geometry">
                        <mxPoint x="427.54796163632795" y="308.3327623614723" as="sourcePoint"/>
                        <mxPoint x="329.4974746830583" y="309.74873734152914" as="targetPoint"/>
                        <Array as="points"/>
                        <mxPoint x="-30" y="-8" as="offset"/>
                    </mxGeometry>
                </mxCell>
            </root>
        </mxGraphModel>
    </diagram>
</mxfile>